<svg width="500" height="500" viewBox="0 0 500 500" fill="none" xmlns="http://www.w3.org/2000/svg">
<rect width="500" height="500" fill="white"/>
<circle cx="250.5" cy="219.5" r="193.5" fill="#1C7F68"/>
<path d="M428 243.5C436.284 243.5 443.058 236.775 442.448 228.513C439.94 194.532 428.936 161.694 410.389 133.219C389.127 100.576 358.907 75.1339 323.549 60.1099C288.192 45.0859 249.285 41.155 211.75 48.8141C174.215 56.4733 139.736 75.3786 112.675 103.139C85.6134 130.9 67.1843 166.269 59.718 204.775C52.2518 243.28 56.0838 283.192 70.7293 319.463C85.3749 355.734 110.176 386.735 141.997 408.547C169.65 427.501 201.524 438.776 234.515 441.404C242.773 442.062 249.5 435.284 249.5 427L249.5 396.255C249.5 387.971 242.763 381.344 234.533 380.397C213.269 377.95 192.806 370.316 174.895 358.039C152.812 342.903 135.6 321.388 125.437 296.217C115.273 271.045 112.614 243.347 117.795 216.625C122.976 189.903 135.766 165.358 154.546 146.092C173.326 126.827 197.253 113.707 223.302 108.392C249.351 103.076 276.351 105.804 300.889 116.231C325.426 126.657 346.399 144.314 361.154 166.967C373.192 185.448 380.651 206.578 382.99 228.528C383.868 236.765 390.501 243.5 398.785 243.5H428Z" fill="#1C7F68"/>
<mask id="path-4-outside-1_248_6" maskUnits="userSpaceOnUse" x="164" y="107" width="276" height="375" fill="black">
<rect fill="white" x="164" y="107" width="276" height="375"/>
<path d="M194 472.5C187.333 472.5 182.167 470.667 178.5 467C175.167 463 173.5 457.667 173.5 451V137.5C173.5 130.5 175.333 125.333 179 122C182.667 118.333 187.833 116.5 194.5 116.5H313C350.667 116.5 379.667 125.833 400 144.5C420.333 162.833 430.5 188.833 430.5 222.5C430.5 255.833 420.333 281.833 400 300.5C379.667 319.167 350.667 328.5 313 328.5H214.5V451C214.5 457.667 212.833 463 209.5 467C206.167 470.667 201 472.5 194 472.5ZM214.5 294H308C335 294 355.333 288 369 276C383 263.667 390 245.833 390 222.5C390 198.833 383 181 369 169C355.333 156.667 335 150.5 308 150.5H214.5V294Z"/>
</mask>
<path d="M194 472.5C187.333 472.5 182.167 470.667 178.5 467C175.167 463 173.5 457.667 173.5 451V137.5C173.5 130.5 175.333 125.333 179 122C182.667 118.333 187.833 116.5 194.5 116.5H313C350.667 116.5 379.667 125.833 400 144.5C420.333 162.833 430.5 188.833 430.5 222.5C430.5 255.833 420.333 281.833 400 300.5C379.667 319.167 350.667 328.5 313 328.5H214.5V451C214.5 457.667 212.833 463 209.5 467C206.167 470.667 201 472.5 194 472.5ZM214.5 294H308C335 294 355.333 288 369 276C383 263.667 390 245.833 390 222.5C390 198.833 383 181 369 169C355.333 156.667 335 150.5 308 150.5H214.5V294Z" fill="white"/>
<path d="M178.5 467L171.586 472.762L171.847 473.075L172.136 473.364L178.5 467ZM179 122L185.054 128.659L185.213 128.515L185.364 128.364L179 122ZM400 144.5L393.914 151.13L393.943 151.157L393.973 151.184L400 144.5ZM400 300.5L393.914 293.87L400 300.5ZM214.5 328.5V319.5H205.5V328.5H214.5ZM209.5 467L216.159 473.054L216.29 472.911L216.414 472.762L209.5 467ZM214.5 294H205.5V303H214.5V294ZM369 276L374.938 282.763L374.944 282.758L374.949 282.753L369 276ZM369 169L362.97 175.682L363.056 175.759L363.143 175.833L369 169ZM214.5 150.5V141.5H205.5V150.5H214.5ZM194 463.5C189.007 463.5 186.398 462.17 184.864 460.636L172.136 473.364C177.936 479.164 185.66 481.5 194 481.5V463.5ZM185.414 461.238C183.77 459.265 182.5 456.164 182.5 451H164.5C164.5 459.17 166.564 466.735 171.586 472.762L185.414 461.238ZM182.5 451V137.5H164.5V451H182.5ZM182.5 137.5C182.5 131.961 183.934 129.678 185.054 128.659L172.946 115.341C166.733 120.989 164.5 129.039 164.5 137.5H182.5ZM185.364 128.364C186.898 126.83 189.507 125.5 194.5 125.5V107.5C186.16 107.5 178.436 109.836 172.636 115.636L185.364 128.364ZM194.5 125.5H313V107.5H194.5V125.5ZM313 125.5C349.244 125.5 375.765 134.469 393.914 151.13L406.086 137.87C383.568 117.197 352.089 107.5 313 107.5V125.5ZM393.973 151.184C411.99 167.429 421.5 190.75 421.5 222.5H439.5C439.5 186.917 428.676 158.238 406.027 137.816L393.973 151.184ZM421.5 222.5C421.5 253.88 412.01 277.257 393.914 293.87L406.086 307.13C428.656 286.41 439.5 257.787 439.5 222.5H421.5ZM393.914 293.87C375.765 310.531 349.244 319.5 313 319.5V337.5C352.089 337.5 383.568 327.803 406.086 307.13L393.914 293.87ZM313 319.5H214.5V337.5H313V319.5ZM205.5 328.5V451H223.5V328.5H205.5ZM205.5 451C205.5 456.164 204.23 459.265 202.586 461.238L216.414 472.762C221.436 466.735 223.5 459.17 223.5 451H205.5ZM202.841 460.946C201.822 462.066 199.539 463.5 194 463.5V481.5C202.461 481.5 210.511 479.267 216.159 473.054L202.841 460.946ZM214.5 303H308V285H214.5V303ZM308 303C336.154 303 358.992 296.764 374.938 282.763L363.062 269.237C351.675 279.236 333.846 285 308 285V303ZM374.949 282.753C391.357 268.298 399 247.72 399 222.5H381C381 243.947 374.643 259.035 363.051 269.247L374.949 282.753ZM399 222.5C399 197.006 391.388 176.336 374.857 162.167L363.143 175.833C374.612 185.664 381 200.661 381 222.5H399ZM375.03 162.318C359.082 147.927 336.207 141.5 308 141.5V159.5C333.793 159.5 351.584 165.406 362.97 175.682L375.03 162.318ZM308 141.5H214.5V159.5H308V141.5ZM205.5 150.5V294H223.5V150.5H205.5Z" fill="#1C7F68" mask="url(#path-4-outside-1_248_6)"/>
<rect x="129" y="154" width="21" height="216" rx="10" fill="white"/>
<rect x="89" y="212" width="16" height="113" rx="8" fill="white"/>
</svg>
